<svg height="512pt" viewBox="0 0 512 512.002" width="512pt" xmlns="http://www.w3.org/2000/svg"><path d="m452.714844 296.703125v-63.421875c33.882812-8.875 58.960937-39.75 58.960937-76.378906 0-43.535156-35.417969-78.953125-78.949219-78.953125-21.003906 0-40.105468 8.261719-54.265624 21.6875l-64.660157-29.929688c6.753907-36.503906-21.429687-69.707031-57.960937-69.707031-36.539063 0-64.714844 33.210938-57.964844 69.707031l-64.660156 29.929688c-14.160156-13.425781-33.257813-21.6875-54.265625-21.6875-43.53125 0-78.949219 35.417969-78.949219 78.953125 0 36.625 25.078125 67.503906 58.964844 76.378906v63.421875c-22.703125 8.207031-38.976563 29.96875-38.976563 55.46875 0 32.511719 26.453125 58.964844 58.960938 58.964844 14.113281 0 27.078125-4.988281 37.234375-13.285157l61.019531 28.375c-4.003906 46.53125 32.824219 85.777344 78.636719 85.777344 45.789062 0 82.640625-39.222656 78.636718-85.777344l61.015626-28.375c10.160156 8.296876 23.125 13.285157 37.234374 13.285157 32.511719 0 58.960938-26.453125 58.960938-58.964844 0-25.5-16.269531-47.261719-38.972656-55.46875zm-19.988282-178.777344c21.492188 0 38.976563 17.484375 38.976563 38.976563 0 21.488281-17.484375 38.972656-38.976563 38.972656-21.492187 0-38.976562-17.484375-38.976562-38.972656 0-21.492188 17.484375-38.976563 38.976562-38.976563zm-176.886718-77.949219c10.46875 0 18.988281 8.515626 18.988281 18.984376 0 10.472656-8.519531 18.988281-18.988281 18.988281-10.472656 0-18.988282-8.515625-18.988282-18.988281 0-10.46875 8.515626-18.984376 18.988282-18.984376zm-215.863282 116.925782c0-21.492188 17.484376-38.976563 38.972657-38.976563 21.492187 0 38.976562 17.484375 38.976562 38.976563 0 21.488281-17.484375 38.972656-38.976562 38.972656-21.488281 0-38.972657-17.484375-38.972657-38.972656zm19.988282 195.269531c0-10.46875 8.515625-18.988281 18.984375-18.988281 10.472656 0 18.988281 8.519531 18.988281 18.988281 0 10.472656-8.515625 18.988281-18.988281 18.988281-10.46875 0-18.984375-8.519531-18.984375-18.988281zm195.875 119.851563c-21.492188 0-38.976563-17.480469-38.976563-38.972657 0-21.492187 17.484375-38.976562 38.976563-38.976562 21.488281 0 38.972656 17.484375 38.972656 38.976562 0 21.492188-17.484375 38.972657-38.972656 38.972657zm-65.09375-83.585938-53.914063-25.070312c5.636719-29.195313-11.230469-57.027344-37.894531-66.664063v-63.421875c42.90625-11.234375 68.738281-56.214844 55.519531-99.429688l63.769531-29.515624c21.84375 18.136718 53.402344 18.117187 75.222657 0l63.765625 29.515624c-13.222656 43.234376 12.632812 88.199219 55.523437 99.429688v63.421875c-26.660156 9.636719-43.53125 37.464844-37.894531 66.664063l-53.914062 25.070312c-31.492188-45.804688-98.746094-45.726562-130.183594 0zm241.980468-17.277344c-10.46875 0-18.988281-8.515625-18.988281-18.988281 0-10.46875 8.519531-18.988281 18.988281-18.988281s18.988282 8.519531 18.988282 18.988281c0 10.472656-8.519532 18.988281-18.988282 18.988281zm0 0"/></svg>